<?xml version="1.0" standalone="no"?>
<!DOCTYPE svg PUBLIC "-//W3C//DTD SVG 20010904//EN"
 "http://www.w3.org/TR/2001/REC-SVG-20010904/DTD/svg10.dtd">
<svg version="1.0" xmlns="http://www.w3.org/2000/svg"
 width="587.000000pt" height="576.000000pt" viewBox="0 0 587.000000 576.000000"
 preserveAspectRatio="xMidYMid meet">

<g transform="translate(0.000000,576.000000) scale(0.100000,-0.100000)"
fill="#000000" stroke="none">
<path d="M2556 3678 c-3 -13 -6 -44 -6 -69 0 -25 -3 -67 -6 -92 l-7 -46 -24
19 c-61 48 -170 47 -244 -3 -37 -25 -112 -115 -145 -174 l-22 -38 192 0 c208
0 225 4 262 61 10 15 23 23 32 19 10 -4 12 -1 7 12 -22 49 -44 120 -45 138 0
28 68 -172 76 -221 8 -53 -7 -127 -58 -284 -35 -110 -39 -134 -36 -199 3 -71
3 -72 -10 -40 -22 52 -8 144 42 293 55 163 58 180 47 236 l-9 45 -1 -64 c-1
-46 -12 -97 -41 -182 -22 -64 -45 -146 -52 -181 -11 -59 -16 -66 -65 -105 -29
-23 -55 -39 -58 -34 -13 21 -98 69 -112 64 -11 -4 -14 -2 -9 6 6 9 0 10 -21 6
-22 -5 -25 -4 -13 5 11 8 3 9 -35 4 -32 -4 -55 -14 -63 -26 -15 -21 -74 -48
-106 -48 -11 -1 -38 -7 -58 -14 -35 -13 -38 -12 -38 5 0 10 13 33 29 51 23 26
39 33 82 39 l54 6 -48 2 c-82 2 -114 -26 -132 -116 -7 -36 0 -41 25 -18 9 8
40 19 69 25 67 12 119 37 132 63 9 16 18 19 55 13 24 -3 61 -13 81 -22 21 -9
45 -17 52 -18 17 -1 118 -118 144 -167 17 -33 17 -33 0 -9 -68 93 -95 121
-107 111 -19 -16 -125 -51 -152 -51 -19 0 -31 -15 -64 -81 -71 -143 -164 -266
-265 -351 -73 -62 -201 -133 -260 -144 -19 -3 -35 -10 -35 -14 0 -11 55 -50
69 -50 21 0 11 -18 -18 -30 -19 -8 -31 -21 -34 -38 -2 -15 -8 -35 -12 -44 -6
-16 0 -18 51 -19 l59 -1 -40 -13 c-54 -18 -16 -18 67 0 90 19 143 43 200 92
55 48 106 67 154 59 45 -9 58 -35 51 -108 l-5 -58 76 0 c43 0 94 -3 114 -6 35
-6 37 -5 57 35 93 181 235 190 418 28 37 -33 90 -70 118 -83 102 -46 233 -54
337 -19 24 8 32 12 18 9 -14 -4 -77 -8 -140 -9 l-115 -3 95 7 c110 9 194 25
267 53 49 18 54 23 99 106 59 108 189 302 280 417 38 48 78 99 89 114 l19 26
-23 -20 c-13 -11 -55 -59 -93 -107 -39 -49 -72 -88 -74 -88 -5 0 93 153 172
268 53 76 63 96 54 112 -5 10 -10 30 -10 45 l0 25 -41 -20 c-54 -28 -64 -22
-36 20 65 97 67 92 -16 51 -78 -38 -96 -53 -32 -26 21 8 40 13 42 11 11 -11
-259 -415 -429 -641 -103 -137 -118 -153 -173 -180 -46 -23 -77 -31 -132 -33
-102 -6 -155 14 -244 94 -83 73 -131 99 -207 114 -93 17 -175 -15 -266 -104
-31 -30 -56 -51 -56 -47 0 11 143 223 213 315 130 173 305 384 382 461 98 99
137 120 226 120 62 0 70 -3 161 -58 145 -87 184 -100 293 -94 50 3 101 10 115
16 20 8 17 9 -20 3 -126 -20 -225 -1 -327 64 -107 68 -148 84 -216 84 -95 0
-149 -23 -226 -96 l-67 -63 -28 36 c-39 48 -83 65 -170 62 -39 -1 -70 2 -69 7
0 5 18 70 39 144 37 137 49 250 31 313 -13 46 16 44 66 -7 54 -54 121 -89 200
-106 63 -13 102 -7 159 21 49 25 155 116 203 174 33 41 36 48 17 43 -38 -10
-103 11 -229 73 -104 51 -131 61 -177 61 -31 0 -53 5 -50 10 8 12 -42 -1 -96
-26 -49 -22 -116 -85 -129 -119 -16 -40 -44 84 -39 165 6 72 4 82 -6 46z m290
-90 c62 4 71 1 192 -57 70 -33 144 -67 165 -75 l38 -16 -27 -35 c-32 -42 -99
-93 -173 -130 -74 -37 -133 -32 -236 20 -73 36 -160 115 -152 138 2 6 19 18
37 29 49 26 122 23 195 -8 112 -48 131 -53 161 -44 29 8 28 8 -9 9 -23 1 -67
17 -117 43 -96 50 -166 60 -236 33 -25 -9 -47 -15 -50 -12 -3 2 7 19 22 36 26
31 117 85 121 73 2 -4 33 -5 69 -4z m-404 -83 c24 -9 60 -29 79 -45 l34 -29
-50 15 c-60 18 -103 14 -173 -16 -62 -27 -64 -37 -2 -15 88 31 220 11 220 -33
0 -25 -50 -70 -91 -82 -20 -6 -91 -8 -176 -4 l-142 7 19 36 c30 60 97 128 152
155 61 30 70 31 130 11z m281 -649 c34 -14 87 -69 87 -89 0 -7 -23 -40 -52
-74 -50 -61 -52 -62 -78 -48 -71 37 -115 92 -125 157 -8 53 8 66 88 67 26 1
62 -5 80 -13z m-223 -73 c0 -48 35 -123 89 -191 41 -51 42 -54 27 -78 -9 -13
-20 -24 -24 -24 -4 0 -24 29 -45 64 -20 35 -60 94 -88 132 l-52 67 36 34 c20
18 41 33 47 33 5 0 10 -17 10 -37z m1311 -191 c-71 -101 -214 -327 -341 -541
-47 -78 -85 -131 -104 -142 -84 -51 -316 -71 -426 -37 -37 12 -89 43 -160 98
-113 86 -184 117 -245 106 -49 -10 -109 -58 -156 -127 l-42 -62 -67 7 c-94 8
-97 10 -105 67 -17 123 -114 141 -243 44 -64 -48 -175 -85 -254 -85 -36 0 -38
2 -38 30 0 23 6 33 23 39 12 5 21 12 19 17 -1 5 19 11 45 14 26 3 68 16 93 28
l45 23 -29 -25 c-16 -13 -52 -31 -80 -40 l-51 -16 48 5 c36 4 64 16 111 50
111 79 204 96 286 52 51 -27 90 -90 90 -144 0 -31 2 -33 15 -19 8 8 15 18 15
22 0 4 35 42 78 84 97 97 146 123 227 124 75 0 152 -38 246 -123 115 -105 216
-136 349 -108 41 8 91 22 110 31 19 9 26 14 15 10 -88 -25 -139 -34 -200 -32
l-70 1 75 7 c97 8 170 41 219 96 47 54 218 301 358 518 100 156 105 162 151
177 l47 16 7 -34 c7 -31 2 -42 -61 -131z m-1376 46 c26 -45 62 -113 78 -151
l29 -70 -33 -46 c-99 -138 -239 -354 -245 -376 -8 -32 -24 -32 -24 0 0 62 -60
125 -141 149 -85 26 -143 10 -333 -92 l-49 -26 -35 20 c-20 10 -37 24 -39 30
-2 6 21 21 51 34 180 73 352 246 469 471 l42 82 54 14 c30 7 55 12 57 10 2 -1
-22 -32 -53 -67 -54 -62 -52 -61 28 18 46 45 86 82 90 82 3 0 27 -37 54 -82z
m135 -184 c0 -8 -4 -12 -10 -9 -5 3 -10 13 -10 21 0 8 5 12 10 9 6 -3 10 -13
10 -21z m-277 -449 c-3 -9 -8 -14 -10 -11 -3 3 -2 9 2 15 9 16 15 13 8 -4z"/>
<path d="M2533 3580 c0 -25 2 -35 4 -22 2 12 2 32 0 45 -2 12 -4 2 -4 -23z"/>
<path d="M2160 3065 c0 -11 -9 -35 -20 -53 -13 -21 -20 -48 -19 -80 l1 -47 9
53 c5 29 16 67 25 84 l17 32 18 -23 c31 -38 23 -100 -18 -151 -2 -2 -8 2 -13
10 -8 12 -10 10 -10 -7 0 -13 4 -23 8 -23 11 0 47 39 62 69 17 33 5 81 -30
121 -25 30 -29 32 -30 15z"/>
</g>
</svg>
